<mxfile host="app.diagrams.net" modified="2024-01-05T05:24:35.072Z" agent="Mozilla/5.0 (Windows NT 10.0; Win64; x64) AppleWebKit/537.36 (KHTML, like Gecko) Chrome/120.0.0.0 Safari/537.36 Edg/120.0.0.0" etag="J87JYIQ3ZEQVwV8fkdRN" version="22.1.16" type="github">
  <diagram id="sJy378vkBmu3zpo50ejq" name="ページ1">
    <mxGraphModel dx="1226" dy="679" grid="1" gridSize="10" guides="1" tooltips="1" connect="1" arrows="1" fold="1" page="1" pageScale="1" pageWidth="827" pageHeight="1169" math="0" shadow="0">
      <root>
        <mxCell id="0" />
        <mxCell id="1" parent="0" />
        <mxCell id="R3VTfGZtO-Mdu-Q72Ekt-1" value="AWS Cloud" style="points=[[0,0],[0.25,0],[0.5,0],[0.75,0],[1,0],[1,0.25],[1,0.5],[1,0.75],[1,1],[0.75,1],[0.5,1],[0.25,1],[0,1],[0,0.75],[0,0.5],[0,0.25]];outlineConnect=0;gradientColor=none;html=1;whiteSpace=wrap;fontSize=16;fontStyle=1;container=1;pointerEvents=0;collapsible=0;recursiveResize=0;shape=mxgraph.aws4.group;grIcon=mxgraph.aws4.group_aws_cloud_alt;strokeColor=#232F3E;fillColor=none;verticalAlign=top;align=left;spacingLeft=30;fontColor=#232F3E;dashed=0;" parent="1" vertex="1">
          <mxGeometry x="200" y="60" width="590" height="280" as="geometry" />
        </mxCell>
        <mxCell id="R3VTfGZtO-Mdu-Q72Ekt-6" value="&amp;nbsp; Availability Zone(ap-northeast-1a)" style="fillColor=none;strokeColor=#147EBA;dashed=1;verticalAlign=top;fontStyle=1;fontColor=#147EBA;whiteSpace=wrap;html=1;align=left;" parent="R3VTfGZtO-Mdu-Q72Ekt-1" vertex="1">
          <mxGeometry x="40" y="30" width="540" height="240" as="geometry" />
        </mxCell>
        <mxCell id="R3VTfGZtO-Mdu-Q72Ekt-2" value="VPC" style="points=[[0,0],[0.25,0],[0.5,0],[0.75,0],[1,0],[1,0.25],[1,0.5],[1,0.75],[1,1],[0.75,1],[0.5,1],[0.25,1],[0,1],[0,0.75],[0,0.5],[0,0.25]];outlineConnect=0;gradientColor=none;html=1;whiteSpace=wrap;fontSize=12;fontStyle=1;container=1;pointerEvents=0;collapsible=0;recursiveResize=0;shape=mxgraph.aws4.group;grIcon=mxgraph.aws4.group_vpc;strokeColor=#248814;fillColor=none;verticalAlign=top;align=left;spacingLeft=30;fontColor=#000000;dashed=0;" parent="R3VTfGZtO-Mdu-Q72Ekt-1" vertex="1">
          <mxGeometry x="60" y="60" width="490" height="200" as="geometry" />
        </mxCell>
        <mxCell id="R3VTfGZtO-Mdu-Q72Ekt-39" value="Router" style="text;html=1;strokeColor=none;fillColor=none;align=center;verticalAlign=middle;whiteSpace=wrap;rounded=0;fontStyle=1" parent="R3VTfGZtO-Mdu-Q72Ekt-2" vertex="1">
          <mxGeometry x="19.840000000000003" y="154" width="60" height="30" as="geometry" />
        </mxCell>
        <mxCell id="R3VTfGZtO-Mdu-Q72Ekt-4" value="Public subnet" style="points=[[0,0],[0.25,0],[0.5,0],[0.75,0],[1,0],[1,0.25],[1,0.5],[1,0.75],[1,1],[0.75,1],[0.5,1],[0.25,1],[0,1],[0,0.75],[0,0.5],[0,0.25]];outlineConnect=0;gradientColor=none;html=1;whiteSpace=wrap;fontSize=12;fontStyle=1;container=1;pointerEvents=0;collapsible=0;recursiveResize=0;shape=mxgraph.aws4.group;grIcon=mxgraph.aws4.group_security_group;grStroke=0;strokeColor=#248814;fillColor=#E9F3E6;verticalAlign=top;align=left;spacingLeft=30;fontColor=#000000;dashed=0;" parent="R3VTfGZtO-Mdu-Q72Ekt-1" vertex="1">
          <mxGeometry x="160" y="90" width="370" height="160" as="geometry" />
        </mxCell>
        <mxCell id="R3VTfGZtO-Mdu-Q72Ekt-46" value="" style="endArrow=classic;startArrow=classic;html=1;rounded=0;strokeWidth=2;" parent="R3VTfGZtO-Mdu-Q72Ekt-4" edge="1">
          <mxGeometry width="50" height="50" relative="1" as="geometry">
            <mxPoint y="111" as="sourcePoint" />
            <mxPoint x="89" y="111" as="targetPoint" />
          </mxGeometry>
        </mxCell>
        <mxCell id="R3VTfGZtO-Mdu-Q72Ekt-40" value="Internet&lt;br&gt;Gateway" style="text;html=1;strokeColor=none;fillColor=default;align=center;verticalAlign=middle;whiteSpace=wrap;rounded=0;fontStyle=1" parent="R3VTfGZtO-Mdu-Q72Ekt-1" vertex="1">
          <mxGeometry x="-30.83" y="220" width="60" height="30" as="geometry" />
        </mxCell>
        <mxCell id="R3VTfGZtO-Mdu-Q72Ekt-8" value="" style="outlineConnect=0;dashed=0;verticalLabelPosition=bottom;verticalAlign=top;align=center;html=1;shape=mxgraph.aws3.internet_gateway;fillColor=#F58534;gradientColor=none;" parent="R3VTfGZtO-Mdu-Q72Ekt-1" vertex="1">
          <mxGeometry x="-20" y="182" width="38.34" height="40" as="geometry" />
        </mxCell>
        <mxCell id="R3VTfGZtO-Mdu-Q72Ekt-48" value="" style="endArrow=classic;startArrow=classic;html=1;rounded=0;entryX=1;entryY=0.5;entryDx=0;entryDy=0;entryPerimeter=0;exitX=0;exitY=0.5;exitDx=0;exitDy=0;exitPerimeter=0;strokeWidth=2;" parent="R3VTfGZtO-Mdu-Q72Ekt-1" source="R3VTfGZtO-Mdu-Q72Ekt-10" target="R3VTfGZtO-Mdu-Q72Ekt-8" edge="1">
          <mxGeometry width="50" height="50" relative="1" as="geometry">
            <mxPoint x="220" y="220" as="sourcePoint" />
            <mxPoint x="270" y="170" as="targetPoint" />
          </mxGeometry>
        </mxCell>
        <mxCell id="R3VTfGZtO-Mdu-Q72Ekt-42" value="" style="endArrow=classic;startArrow=classic;html=1;rounded=0;exitX=1;exitY=0.5;exitDx=0;exitDy=0;exitPerimeter=0;strokeWidth=2;" parent="R3VTfGZtO-Mdu-Q72Ekt-1" source="R3VTfGZtO-Mdu-Q72Ekt-10" edge="1">
          <mxGeometry width="50" height="50" relative="1" as="geometry">
            <mxPoint x="220" y="220" as="sourcePoint" />
            <mxPoint x="159" y="201" as="targetPoint" />
          </mxGeometry>
        </mxCell>
        <mxCell id="R3VTfGZtO-Mdu-Q72Ekt-16" value="&amp;nbsp; Security group" style="fillColor=none;strokeColor=#ff0000;verticalAlign=top;fontStyle=1;fontColor=#FF0000;whiteSpace=wrap;html=1;dashed=1;align=left;" parent="R3VTfGZtO-Mdu-Q72Ekt-1" vertex="1">
          <mxGeometry x="250" y="120" width="250" height="120" as="geometry" />
        </mxCell>
        <mxCell id="R3VTfGZtO-Mdu-Q72Ekt-36" value="" style="sketch=0;points=[[0,0,0],[0.25,0,0],[0.5,0,0],[0.75,0,0],[1,0,0],[0,1,0],[0.25,1,0],[0.5,1,0],[0.75,1,0],[1,1,0],[0,0.25,0],[0,0.5,0],[0,0.75,0],[1,0.25,0],[1,0.5,0],[1,0.75,0]];outlineConnect=0;fontColor=#232F3E;fillColor=#ED7100;strokeColor=#ffffff;dashed=0;verticalLabelPosition=bottom;verticalAlign=top;align=center;html=1;fontSize=12;fontStyle=0;aspect=fixed;shape=mxgraph.aws4.resourceIcon;resIcon=mxgraph.aws4.ec2;" parent="R3VTfGZtO-Mdu-Q72Ekt-1" vertex="1">
          <mxGeometry x="430" y="182" width="40" height="40" as="geometry" />
        </mxCell>
        <mxCell id="R3VTfGZtO-Mdu-Q72Ekt-37" value="EC2" style="text;html=1;strokeColor=none;fillColor=none;align=center;verticalAlign=middle;whiteSpace=wrap;rounded=0;fontStyle=1" parent="R3VTfGZtO-Mdu-Q72Ekt-1" vertex="1">
          <mxGeometry x="420" y="217" width="60" height="30" as="geometry" />
        </mxCell>
        <mxCell id="R3VTfGZtO-Mdu-Q72Ekt-47" value="" style="endArrow=classic;startArrow=classic;html=1;rounded=0;entryX=0;entryY=0.5;entryDx=0;entryDy=0;entryPerimeter=0;exitX=0.009;exitY=0.671;exitDx=0;exitDy=0;exitPerimeter=0;strokeWidth=2;strokeColor=#FF0000;" parent="R3VTfGZtO-Mdu-Q72Ekt-1" source="R3VTfGZtO-Mdu-Q72Ekt-16" target="R3VTfGZtO-Mdu-Q72Ekt-36" edge="1">
          <mxGeometry width="50" height="50" relative="1" as="geometry">
            <mxPoint x="260" y="218" as="sourcePoint" />
            <mxPoint x="310" y="168" as="targetPoint" />
          </mxGeometry>
        </mxCell>
        <mxCell id="-8KnsCUkzP_ov_TZV2t5-20" value="※通信の許可設定&lt;br&gt;port:22(SSH)&lt;br style=&quot;font-size: 12px;&quot;&gt;port:80(HTTP)" style="text;html=1;strokeColor=none;fillColor=none;align=left;verticalAlign=middle;whiteSpace=wrap;rounded=0;fontSize=12;fontStyle=0;fontColor=#FF0000;" parent="R3VTfGZtO-Mdu-Q72Ekt-1" vertex="1">
          <mxGeometry x="255" y="139" width="125.94" height="50" as="geometry" />
        </mxCell>
        <mxCell id="R3VTfGZtO-Mdu-Q72Ekt-10" value="" style="outlineConnect=0;dashed=0;verticalLabelPosition=bottom;verticalAlign=top;align=center;html=1;shape=mxgraph.aws3.router;fillColor=#F58534;gradientColor=none;" parent="R3VTfGZtO-Mdu-Q72Ekt-1" vertex="1">
          <mxGeometry x="90.82999999999996" y="181" width="38.33" height="40" as="geometry" />
        </mxCell>
        <mxCell id="R3VTfGZtO-Mdu-Q72Ekt-17" value="" style="outlineConnect=0;dashed=0;verticalLabelPosition=bottom;verticalAlign=top;align=center;html=1;shape=mxgraph.aws3.elastic_ip;fillColor=#F58534;gradientColor=none;" parent="R3VTfGZtO-Mdu-Q72Ekt-1" vertex="1">
          <mxGeometry x="389.57" y="207" width="36.43" height="10" as="geometry" />
        </mxCell>
        <mxCell id="R3VTfGZtO-Mdu-Q72Ekt-38" value="Elastic&lt;br&gt;IP" style="text;html=1;strokeColor=none;fillColor=none;align=center;verticalAlign=middle;whiteSpace=wrap;rounded=0;fontStyle=1;fillStyle=auto;" parent="R3VTfGZtO-Mdu-Q72Ekt-1" vertex="1">
          <mxGeometry x="377.78000000000003" y="217" width="60" height="30" as="geometry" />
        </mxCell>
        <mxCell id="R3VTfGZtO-Mdu-Q72Ekt-9" value="" style="outlineConnect=0;dashed=0;verticalLabelPosition=bottom;verticalAlign=top;align=center;html=1;shape=mxgraph.aws3.internet_2;fillColor=#D2D3D3;gradientColor=none;" parent="1" vertex="1">
          <mxGeometry x="51.11" y="213" width="98.89" height="70" as="geometry" />
        </mxCell>
        <mxCell id="R3VTfGZtO-Mdu-Q72Ekt-41" value="Internet" style="text;html=1;strokeColor=none;fillColor=none;align=center;verticalAlign=middle;whiteSpace=wrap;rounded=0;fontStyle=1" parent="1" vertex="1">
          <mxGeometry x="71.11" y="275.72" width="60" height="30" as="geometry" />
        </mxCell>
        <mxCell id="R3VTfGZtO-Mdu-Q72Ekt-49" value="" style="endArrow=classic;startArrow=classic;html=1;rounded=0;exitX=1;exitY=0.7;exitDx=0;exitDy=0;exitPerimeter=0;entryX=0;entryY=0.5;entryDx=0;entryDy=0;entryPerimeter=0;strokeWidth=2;" parent="1" source="R3VTfGZtO-Mdu-Q72Ekt-9" target="R3VTfGZtO-Mdu-Q72Ekt-8" edge="1">
          <mxGeometry width="50" height="50" relative="1" as="geometry">
            <mxPoint x="420" y="280" as="sourcePoint" />
            <mxPoint x="470" y="230" as="targetPoint" />
          </mxGeometry>
        </mxCell>
        <mxCell id="bA1XOdzTZ2kSw8sosjhB-2" value="" style="rounded=0;whiteSpace=wrap;html=1;" vertex="1" parent="1">
          <mxGeometry x="360" y="350" width="440" height="310" as="geometry" />
        </mxCell>
        <mxCell id="bA1XOdzTZ2kSw8sosjhB-3" value="" style="rounded=0;whiteSpace=wrap;html=1;" vertex="1" parent="1">
          <mxGeometry x="380" y="380" width="410" height="270" as="geometry" />
        </mxCell>
        <mxCell id="bA1XOdzTZ2kSw8sosjhB-4" value="" style="rounded=0;whiteSpace=wrap;html=1;" vertex="1" parent="1">
          <mxGeometry x="410" y="410" width="370" height="230" as="geometry" />
        </mxCell>
        <mxCell id="bA1XOdzTZ2kSw8sosjhB-5" value="" style="rounded=0;whiteSpace=wrap;html=1;strokeColor=#ff8000;" vertex="1" parent="1">
          <mxGeometry x="420" y="440" width="350" height="190" as="geometry" />
        </mxCell>
        <mxCell id="bA1XOdzTZ2kSw8sosjhB-7" value="&amp;nbsp; &amp;nbsp; &amp;nbsp;AWS Cloud" style="text;html=1;strokeColor=none;fillColor=#000000;align=left;verticalAlign=middle;whiteSpace=wrap;rounded=0;fontSize=15;fontStyle=0;fontColor=#FFFFFF;" vertex="1" parent="1">
          <mxGeometry x="380" y="350" width="420" height="20" as="geometry" />
        </mxCell>
        <mxCell id="bA1XOdzTZ2kSw8sosjhB-8" value="&amp;nbsp;Region(ap-northeast-1) ※東京リージョン" style="text;html=1;strokeColor=none;fillColor=#000000;align=left;verticalAlign=middle;whiteSpace=wrap;rounded=0;fontSize=12;fontStyle=0;fontColor=#FFFFFF;" vertex="1" parent="1">
          <mxGeometry x="380" y="380" width="410" height="20" as="geometry" />
        </mxCell>
        <mxCell id="bA1XOdzTZ2kSw8sosjhB-9" value="&amp;nbsp; Availability Zone(ap-northeast-1a)" style="text;html=1;strokeColor=none;fillColor=#000000;align=left;verticalAlign=middle;whiteSpace=wrap;rounded=0;fontSize=12;fontStyle=0;fontColor=#FFFFFF;" vertex="1" parent="1">
          <mxGeometry x="410" y="410" width="370" height="20" as="geometry" />
        </mxCell>
        <mxCell id="bA1XOdzTZ2kSw8sosjhB-10" value="&amp;nbsp; VPC" style="text;html=1;strokeColor=none;fillColor=#FF8000;align=left;verticalAlign=middle;whiteSpace=wrap;rounded=0;fontSize=12;fontStyle=0" vertex="1" parent="1">
          <mxGeometry x="420" y="440" width="350" height="20" as="geometry" />
        </mxCell>
        <mxCell id="bA1XOdzTZ2kSw8sosjhB-11" value="" style="rounded=0;whiteSpace=wrap;html=1;strokeColor=#ff8000;" vertex="1" parent="1">
          <mxGeometry x="500" y="470" width="260" height="150" as="geometry" />
        </mxCell>
        <mxCell id="bA1XOdzTZ2kSw8sosjhB-12" value="&amp;nbsp; Public Subnet" style="text;html=1;strokeColor=none;fillColor=#ff8000;align=left;verticalAlign=middle;whiteSpace=wrap;rounded=0;fontSize=12;fontStyle=0" vertex="1" parent="1">
          <mxGeometry x="500" y="470" width="260" height="20" as="geometry" />
        </mxCell>
        <mxCell id="bA1XOdzTZ2kSw8sosjhB-13" value="" style="rounded=0;whiteSpace=wrap;html=1;dashed=1;strokeColor=#FF0000;" vertex="1" parent="1">
          <mxGeometry x="510" y="500" width="240" height="110" as="geometry" />
        </mxCell>
        <mxCell id="bA1XOdzTZ2kSw8sosjhB-14" value="&amp;nbsp; Security group" style="text;html=1;strokeColor=none;fillColor=#FF0000;align=left;verticalAlign=middle;whiteSpace=wrap;rounded=0;fontSize=12;fontStyle=0;fontColor=#ffffff;" vertex="1" parent="1">
          <mxGeometry x="510" y="500" width="240" height="20" as="geometry" />
        </mxCell>
        <mxCell id="bA1XOdzTZ2kSw8sosjhB-15" value="" style="sketch=0;points=[[0,0,0],[0.25,0,0],[0.5,0,0],[0.75,0,0],[1,0,0],[0,1,0],[0.25,1,0],[0.5,1,0],[0.75,1,0],[1,1,0],[0,0.25,0],[0,0.5,0],[0,0.75,0],[1,0.25,0],[1,0.5,0],[1,0.75,0]];outlineConnect=0;fontColor=#232F3E;fillColor=#ED7100;strokeColor=#ffffff;dashed=0;verticalLabelPosition=bottom;verticalAlign=top;align=center;html=1;fontSize=12;fontStyle=0;aspect=fixed;shape=mxgraph.aws4.resourceIcon;resIcon=mxgraph.aws4.ec2;" vertex="1" parent="1">
          <mxGeometry x="690" y="536" width="40" height="40" as="geometry" />
        </mxCell>
        <mxCell id="bA1XOdzTZ2kSw8sosjhB-16" value="" style="outlineConnect=0;dashed=0;verticalLabelPosition=bottom;verticalAlign=top;align=center;html=1;shape=mxgraph.aws3.elastic_ip;fillColor=#F58534;gradientColor=none;" vertex="1" parent="1">
          <mxGeometry x="641.79" y="561" width="36.43" height="10" as="geometry" />
        </mxCell>
        <mxCell id="bA1XOdzTZ2kSw8sosjhB-17" value="Elastic&lt;br&gt;IP" style="text;html=1;strokeColor=none;fillColor=none;align=center;verticalAlign=middle;whiteSpace=wrap;rounded=0;fontStyle=1;fillStyle=auto;" vertex="1" parent="1">
          <mxGeometry x="630" y="573" width="60" height="30" as="geometry" />
        </mxCell>
        <mxCell id="bA1XOdzTZ2kSw8sosjhB-18" value="EC2" style="text;html=1;strokeColor=none;fillColor=none;align=center;verticalAlign=middle;whiteSpace=wrap;rounded=0;fontStyle=1" vertex="1" parent="1">
          <mxGeometry x="680" y="568" width="60" height="30" as="geometry" />
        </mxCell>
        <mxCell id="bA1XOdzTZ2kSw8sosjhB-20" value="Internet" style="text;html=1;strokeColor=none;fillColor=none;align=center;verticalAlign=middle;whiteSpace=wrap;rounded=0;fontStyle=1" vertex="1" parent="1">
          <mxGeometry x="220" y="571.36" width="60" height="30" as="geometry" />
        </mxCell>
        <mxCell id="bA1XOdzTZ2kSw8sosjhB-21" value="" style="outlineConnect=0;dashed=0;verticalLabelPosition=bottom;verticalAlign=top;align=center;html=1;shape=mxgraph.aws3.internet_2;fillColor=#D2D3D3;gradientColor=none;" vertex="1" parent="1">
          <mxGeometry x="200" y="508.64" width="98.89" height="70" as="geometry" />
        </mxCell>
        <mxCell id="bA1XOdzTZ2kSw8sosjhB-22" value="" style="outlineConnect=0;dashed=0;verticalLabelPosition=bottom;verticalAlign=top;align=center;html=1;shape=mxgraph.aws3.cloud_2;fillColor=#000000;gradientColor=none;" vertex="1" parent="1">
          <mxGeometry x="360" y="350" width="20" height="20" as="geometry" />
        </mxCell>
        <mxCell id="bA1XOdzTZ2kSw8sosjhB-23" value="Router" style="text;html=1;strokeColor=none;fillColor=none;align=center;verticalAlign=middle;whiteSpace=wrap;rounded=0;fontStyle=1" vertex="1" parent="1">
          <mxGeometry x="430" y="569.5" width="60" height="30" as="geometry" />
        </mxCell>
        <mxCell id="bA1XOdzTZ2kSw8sosjhB-24" value="" style="outlineConnect=0;dashed=0;verticalLabelPosition=bottom;verticalAlign=top;align=center;html=1;shape=mxgraph.aws3.router;fillColor=#F58534;gradientColor=none;" vertex="1" parent="1">
          <mxGeometry x="440.9899999999999" y="536.5" width="38.33" height="40" as="geometry" />
        </mxCell>
        <mxCell id="bA1XOdzTZ2kSw8sosjhB-25" value="" style="outlineConnect=0;dashed=0;verticalLabelPosition=bottom;verticalAlign=top;align=center;html=1;shape=mxgraph.aws3.internet_gateway;fillColor=#F58534;gradientColor=none;" vertex="1" parent="1">
          <mxGeometry x="350.83000000000004" y="533.36" width="38.34" height="40" as="geometry" />
        </mxCell>
        <mxCell id="bA1XOdzTZ2kSw8sosjhB-26" value="Internet&lt;br&gt;Gateway" style="text;html=1;strokeColor=none;fillColor=default;align=center;verticalAlign=middle;whiteSpace=wrap;rounded=0;fontStyle=1" vertex="1" parent="1">
          <mxGeometry x="340" y="577.36" width="60" height="30" as="geometry" />
        </mxCell>
        <mxCell id="bA1XOdzTZ2kSw8sosjhB-28" value="" style="endArrow=classic;startArrow=classic;html=1;rounded=0;entryX=1;entryY=0.5;entryDx=0;entryDy=0;entryPerimeter=0;strokeWidth=2;" edge="1" parent="1" target="bA1XOdzTZ2kSw8sosjhB-25">
          <mxGeometry width="50" height="50" relative="1" as="geometry">
            <mxPoint x="440" y="554" as="sourcePoint" />
            <mxPoint x="400" y="553.77" as="targetPoint" />
          </mxGeometry>
        </mxCell>
        <mxCell id="bA1XOdzTZ2kSw8sosjhB-30" value="" style="endArrow=classic;startArrow=classic;html=1;rounded=0;entryX=0;entryY=0.5;entryDx=0;entryDy=0;entryPerimeter=0;exitX=1;exitY=0.5;exitDx=0;exitDy=0;exitPerimeter=0;strokeWidth=2;strokeColor=#FF0000;" edge="1" parent="1" source="bA1XOdzTZ2kSw8sosjhB-24" target="bA1XOdzTZ2kSw8sosjhB-15">
          <mxGeometry width="50" height="50" relative="1" as="geometry">
            <mxPoint x="479.32" y="555.5" as="sourcePoint" />
            <mxPoint x="690" y="552" as="targetPoint" />
          </mxGeometry>
        </mxCell>
        <mxCell id="bA1XOdzTZ2kSw8sosjhB-31" value="" style="endArrow=classic;startArrow=classic;html=1;rounded=0;exitX=1;exitY=0.7;exitDx=0;exitDy=0;exitPerimeter=0;strokeWidth=2;" edge="1" parent="1">
          <mxGeometry width="50" height="50" relative="1" as="geometry">
            <mxPoint x="298.89" y="552" as="sourcePoint" />
            <mxPoint x="350" y="552" as="targetPoint" />
          </mxGeometry>
        </mxCell>
        <mxCell id="bA1XOdzTZ2kSw8sosjhB-32" value="※通信の許可設定&lt;br&gt;port:22(SSH) /&amp;nbsp;port:80(HTTP)" style="text;html=1;strokeColor=none;fillColor=none;align=left;verticalAlign=middle;whiteSpace=wrap;rounded=0;fontSize=12;fontStyle=0;fontColor=#FF0000;" vertex="1" parent="1">
          <mxGeometry x="517.03" y="520" width="167.97" height="40" as="geometry" />
        </mxCell>
        <mxCell id="bA1XOdzTZ2kSw8sosjhB-33" value="" style="endArrow=classic;startArrow=classic;html=1;rounded=0;strokeWidth=2;exitX=1;exitY=0.5;exitDx=0;exitDy=0;exitPerimeter=0;" edge="1" parent="1">
          <mxGeometry width="50" height="50" relative="1" as="geometry">
            <mxPoint x="150" y="552.3599999999999" as="sourcePoint" />
            <mxPoint x="201.11" y="552" as="targetPoint" />
          </mxGeometry>
        </mxCell>
        <mxCell id="bA1XOdzTZ2kSw8sosjhB-38" value="" style="endArrow=classic;startArrow=classic;html=1;rounded=0;strokeWidth=2;exitX=0.95;exitY=1;exitDx=0;exitDy=0;exitPerimeter=0;entryX=0.17;entryY=0.2;entryDx=0;entryDy=0;entryPerimeter=0;" edge="1" parent="1" target="bA1XOdzTZ2kSw8sosjhB-21">
          <mxGeometry width="50" height="50" relative="1" as="geometry">
            <mxPoint x="177" y="482" as="sourcePoint" />
            <mxPoint x="200" y="500" as="targetPoint" />
          </mxGeometry>
        </mxCell>
        <mxCell id="bA1XOdzTZ2kSw8sosjhB-40" value="" style="endArrow=classic;startArrow=classic;html=1;rounded=0;strokeWidth=2;exitX=0.5;exitY=1;exitDx=0;exitDy=0;exitPerimeter=0;" edge="1" parent="1" target="bA1XOdzTZ2kSw8sosjhB-21">
          <mxGeometry width="50" height="50" relative="1" as="geometry">
            <mxPoint x="250" y="452" as="sourcePoint" />
            <mxPoint x="201.11" y="552" as="targetPoint" />
          </mxGeometry>
        </mxCell>
        <mxCell id="bA1XOdzTZ2kSw8sosjhB-44" value="" style="image;points=[];aspect=fixed;html=1;align=center;shadow=0;dashed=0;image=img/lib/allied_telesis/computer_and_terminals/Laptop.svg;" vertex="1" parent="1">
          <mxGeometry x="120" y="425.98999999999995" width="63.11" height="64.01" as="geometry" />
        </mxCell>
        <mxCell id="bA1XOdzTZ2kSw8sosjhB-45" value="" style="image;points=[];aspect=fixed;html=1;align=center;shadow=0;dashed=0;image=img/lib/allied_telesis/computer_and_terminals/Personal_Computer_with_Server.svg;" vertex="1" parent="1">
          <mxGeometry x="87.60000000000002" y="516.24" width="62.400000000000006" height="62.400000000000006" as="geometry" />
        </mxCell>
        <mxCell id="bA1XOdzTZ2kSw8sosjhB-46" value="" style="image;points=[];aspect=fixed;html=1;align=center;shadow=0;dashed=0;image=img/lib/allied_telesis/computer_and_terminals/Tablet.svg;" vertex="1" parent="1">
          <mxGeometry x="235.95" y="391.5" width="27" height="57" as="geometry" />
        </mxCell>
      </root>
    </mxGraphModel>
  </diagram>
</mxfile>
